<?xml version="1.0" standalone="no"?>
<!DOCTYPE svg PUBLIC "-//W3C//DTD SVG 20010904//EN"
 "http://www.w3.org/TR/2001/REC-SVG-20010904/DTD/svg10.dtd">
<svg version="1.0" xmlns="http://www.w3.org/2000/svg"
 width="906.000000pt" height="311.000000pt" viewBox="0 0 906.000000 311.000000"
 preserveAspectRatio="xMidYMid meet">
<metadata>
Created by potrace 1.16, written by Peter Selinger 2001-2019
</metadata>
<g transform="translate(0.000000,311.000000) scale(0.100000,-0.100000)"
fill="#FFFFFF" stroke="none">
<path d="M1100 3095 c-297 -68 -660 -428 -875 -870 -149 -305 -212 -553 -222
-865 -4 -134 -2 -201 11 -288 74 -502 355 -851 805 -1001 141 -47 254 -64 421
-64 270 1 502 73 728 225 492 332 651 1005 407 1718 -185 539 -564 996 -932
1122 -106 37 -242 46 -343 23z m-469 -1424 c101 -11 169 -41 229 -101 105
-105 135 -282 71 -424 -28 -64 -104 -141 -170 -173 -55 -27 -60 -28 -263 -31
l-208 -4 0 371 0 371 128 0 c70 0 166 -4 213 -9z m869 -56 l0 -65 -145 0 -145
0 0 -80 0 -80 140 0 140 0 0 -65 0 -65 -140 0 -140 0 0 -95 0 -95 150 0 150 0
0 -65 0 -65 -230 0 -230 0 0 370 0 370 225 0 225 0 0 -65z m338 -158 c47 -120
89 -214 93 -210 4 4 47 103 96 218 l88 210 89 3 c50 2 86 -1 84 -6 -1 -5 -77
-175 -168 -376 l-165 -367 -33 3 -34 3 -154 369 c-85 203 -154 371 -154 373 0
2 39 2 86 1 l86 -3 86 -218z"/>
<path d="M460 1305 l0 -225 90 0 c107 0 142 12 192 67 92 103 64 304 -52 363
-31 16 -59 20 -135 20 l-95 0 0 -225z"/>
<path d="M4329 1711 c-175 -56 -272 -218 -256 -424 7 -88 27 -146 73 -214 94
-137 287 -188 470 -123 104 36 104 37 104 146 l0 96 -32 -22 c-146 -97 -293
-101 -371 -9 -80 93 -76 248 8 335 78 81 211 84 341 8 22 -13 44 -24 47 -24 4
0 7 42 7 94 l0 94 -48 20 c-106 46 -243 55 -343 23z"/>
<path d="M7867 1720 c-126 -32 -224 -131 -262 -264 -26 -89 -18 -233 17 -308
36 -79 70 -120 131 -162 149 -102 363 -81 486 48 87 93 117 182 109 327 -7
108 -44 195 -113 264 -67 68 -138 97 -244 101 -47 2 -103 -1 -124 -6z m153
-170 c20 -5 52 -27 72 -47 85 -87 92 -245 16 -338 -39 -47 -81 -67 -138 -67
-56 0 -97 19 -137 66 -42 47 -56 95 -51 180 4 93 41 158 107 193 48 25 77 28
131 13z"/>
<path d="M2950 1330 l0 -390 95 0 95 0 0 390 0 390 -95 0 -95 0 0 -390z"/>
<path d="M3270 1330 l0 -390 90 0 90 0 2 234 3 235 188 -235 187 -234 75 0 75
0 0 390 0 390 -90 0 -90 0 -2 -225 -3 -224 -180 224 -180 224 -82 1 -83 0 0
-390z"/>
<path d="M4810 1470 c0 -323 12 -380 97 -462 65 -63 122 -83 238 -83 124 1
184 23 249 96 74 83 79 105 84 422 l4 277 -96 0 -96 0 0 -250 c0 -278 -6 -312
-63 -352 -43 -31 -121 -31 -164 0 -59 42 -63 63 -63 346 l0 256 -95 0 -95 0 0
-250z"/>
<path d="M5600 1331 l0 -391 203 0 c212 0 253 6 308 43 55 37 79 90 79 175 0
92 -23 142 -84 180 l-43 28 25 18 c55 42 70 159 29 231 -16 30 -37 48 -81 70
-59 29 -63 29 -248 33 l-188 4 0 -391z m321 228 c26 -14 41 -55 34 -91 -9 -38
-50 -58 -120 -58 l-55 0 0 80 0 80 61 0 c33 0 69 -5 80 -11z m32 -310 c50 -23
62 -95 22 -134 -22 -23 -32 -25 -110 -25 l-85 0 0 85 0 85 75 0 c41 0 85 -5
98 -11z"/>
<path d="M6482 1668 c-11 -29 -79 -203 -151 -386 -72 -183 -131 -335 -131
-338 0 -2 44 -4 98 -4 l97 0 26 73 26 72 146 3 147 3 22 -76 22 -75 99 0 c97
0 98 0 91 23 -3 12 -64 186 -134 387 l-128 365 -105 3 -105 3 -20 -53z m204
-420 c5 -16 -4 -18 -89 -18 l-95 0 44 118 c24 64 47 124 50 132 5 12 44 -90
90 -232z"/>
<path d="M6900 1640 l0 -80 115 0 115 0 0 -310 0 -310 100 0 100 0 0 310 0
310 115 0 115 0 0 80 0 80 -330 0 -330 0 0 -80z"/>
<path d="M8450 1331 l0 -391 90 0 90 0 0 155 0 155 25 0 c68 0 92 -32 166
-222 l34 -88 103 0 c56 0 102 3 102 6 0 22 -129 303 -151 328 l-27 32 33 21
c88 58 101 229 24 317 -49 56 -99 68 -306 74 l-183 4 0 -391z m325 214 c30
-30 33 -83 6 -116 -15 -19 -30 -24 -85 -27 l-66 -4 0 86 0 86 60 0 c51 0 65
-4 85 -25z"/>
</g>
</svg>
